<svg width="46" height="102" viewBox="0 0 46 102" fill="none" xmlns="http://www.w3.org/2000/svg">
<g id="Vector 2997">
<path d="M30.3151 94.1702C28.3929 93.8998 27.1789 93.3218 26.7775 92.01C26.6144 98.6735 18.9069 102.477 11.5443 97.9422C9.73218 97.1031 9.84295 94.1302 9.7675 92.7898C9.63178 90.3786 9.53175 87.7075 10.1836 85.3237C10.4785 84.2452 10.3582 83.1602 10.5983 82.0795C10.7977 81.1823 10.9405 80.2504 10.9224 79.3459C10.8801 77.2374 11.4296 75.058 11.7045 72.9593C12.0286 70.4854 11.6187 68.0407 11.6999 65.5665C11.7797 63.1378 11.5461 60.71 11.4098 58.2889C11.0981 52.751 10.5535 47.2747 9.5791 41.8021C8.91493 38.0719 8.65837 34.2848 7.10804 30.6832C6.44257 29.1372 6.20429 27.4202 5.18368 25.9751C4.52564 25.0434 4.76077 23.8696 4.05686 22.9366C3.70938 22.4761 3.60765 21.1764 3.55455 20.6162L3.54513 20.5165C3.45983 19.6137 3.36582 18.6188 3.10106 17.7479C2.78063 16.6938 2.7951 15.614 2.73397 14.5279C2.67247 13.4353 2.38228 12.2181 2.66234 11.1327C2.77319 10.703 2.57142 10.1819 2.75874 9.77948C2.88548 9.50719 3.12809 9.15379 3.13215 8.86654C3.14522 7.94378 4.05391 7.1819 4.36825 6.29957C4.90159 4.80253 7.34689 3.28693 9.09629 2.56484C10.9562 1.79715 15.2489 1.90963 16.8401 2.88213C19.1349 4.28463 20.0377 5.64845 19.5658 7.9118C19.2854 9.25711 19.0042 10.6701 19.0809 12.032C19.1295 12.896 20.1067 10.25 20.2113 9.94671C20.5859 8.86116 21.645 7.55841 22.4638 6.56936C23.4993 5.31862 24.7265 4.53692 26.144 3.55759C27.1476 2.86427 29.9872 2.00058 31.2676 2.60521C31.9522 2.92849 32.8739 2.88941 33.5386 3.32968C34.244 3.79697 34.838 4.71541 35.5354 5.08043C36.7658 5.72435 36.1072 7.46877 35.8932 8.37032C35.322 10.7762 34.7174 13.0228 33.4853 15.3538C32.1225 17.932 29.9802 20.2982 28.9625 22.9717C27.1276 27.7922 25.9878 32.857 26.2683 37.8401L26.8305 47.8278L27.188 54.1799C27.2935 56.0539 27.7566 57.8265 27.9885 59.6747C28.2827 62.0202 29.1277 64.2637 29.7429 66.5528C30.0468 67.6835 30.2453 69.1687 30.9566 70.1909C31.3791 70.7981 31.6177 71.4812 32.0454 72.082C32.3713 72.5398 33.1176 72.9741 33.5408 73.4149C34.51 74.4247 36.1242 75.686 37.5188 76.402C42.164 78.7865 43.3724 82.1001 43.0782 86.257C43.0107 87.2105 42.3991 88.2594 42.0076 89.1714C41.3639 90.6712 40.7423 92.0983 39.1269 93.1787C38.3508 93.6977 37.8149 93.7755 36.8301 93.8828C34.7109 94.1138 32.4326 94.4681 30.3151 94.1702Z" fill="white"/>
<path d="M26.6536 91.3834C26.8376 93.1454 28.1107 93.8601 30.3151 94.1702C32.4326 94.4681 34.7109 94.1138 36.8301 93.8828C37.8149 93.7755 38.3508 93.6977 39.1269 93.1787C40.7423 92.0983 41.3639 90.6712 42.0076 89.1714C42.3991 88.2594 43.0107 87.2105 43.0782 86.257C43.3724 82.1001 42.164 78.7865 37.5188 76.402C36.1242 75.686 34.51 74.4247 33.5408 73.4149C33.1176 72.9741 32.3713 72.5398 32.0454 72.082C31.6177 71.4812 31.3791 70.7981 30.9566 70.1909C30.2453 69.1687 30.0468 67.6835 29.7429 66.5528C29.1277 64.2637 28.2827 62.0203 27.9885 59.6747C27.7566 57.8265 27.2935 56.0539 27.188 54.1799C27.0688 52.0625 26.9496 49.9452 26.8305 47.8278C26.6431 44.4986 26.4557 41.1693 26.2683 37.8401C25.9878 32.857 27.1276 27.7921 28.9625 22.9717C29.9802 20.2982 32.1225 17.932 33.4853 15.3538C34.7174 13.0228 35.322 10.7762 35.8932 8.37032C36.1072 7.46877 36.7658 5.72435 35.5354 5.08043C34.838 4.71541 34.244 3.79697 33.5386 3.32968C32.8739 2.88941 31.9522 2.92849 31.2676 2.60521C29.9872 2.00058 27.1476 2.86427 26.144 3.55759C24.7265 4.53692 23.4993 5.31862 22.4638 6.56936C21.645 7.55841 20.5859 8.86116 20.2113 9.94671C20.1067 10.25 19.1295 12.896 19.0809 12.032C19.0042 10.6701 19.2854 9.25712 19.5658 7.9118C20.0377 5.64845 19.1349 4.28463 16.8401 2.88213C15.2489 1.90963 10.9562 1.79714 9.09629 2.56484C7.34689 3.28693 4.90159 4.80253 4.36825 6.29957C4.05392 7.1819 3.14522 7.94379 3.13215 8.86654C3.12809 9.15379 2.88548 9.50719 2.75874 9.77948C2.57142 10.1819 2.77319 10.703 2.66234 11.1327C2.38228 12.2181 2.67247 13.4353 2.73397 14.5279C2.7951 15.614 2.78062 16.6938 3.10106 17.7479C3.3756 18.651 3.46654 19.6874 3.55455 20.6162C3.60765 21.1764 3.70938 22.4761 4.05686 22.9366C4.76077 23.8696 4.52564 25.0434 5.18368 25.9751C6.20429 27.4202 6.44257 29.1372 7.10804 30.6832C8.65837 34.2848 8.91493 38.0719 9.5791 41.8021C10.5535 47.2747 11.0981 52.751 11.4098 58.2889C11.5461 60.71 11.7797 63.1378 11.6999 65.5665C11.6187 68.0407 12.0286 70.4854 11.7045 72.9593C11.4296 75.058 10.8801 77.2374 10.9224 79.3459C10.9405 80.2504 10.7977 81.1823 10.5983 82.0795C10.3582 83.1602 10.4785 84.2452 10.1836 85.3237C9.53175 87.7075 9.63178 90.3786 9.7675 92.7898C9.84295 94.1302 9.73218 97.1031 11.5443 97.9422C19.1699 102.639 27.1657 98.391 26.7658 91.285" stroke="black" stroke-width="4" stroke-linecap="round"/>
</g>
</svg>
