<svg width="33" height="53" viewBox="0 0 33 53" fill="none" xmlns="http://www.w3.org/2000/svg">
<g id="Vector 2997">
<path d="M24.3307 46.4866C23.1956 46.5375 22.4501 46.3708 22.1251 45.7682C22.4976 49.0389 18.2888 51.631 13.6955 50.1166C12.5844 49.8792 12.4403 48.4164 12.3025 47.7687C12.0546 46.6038 11.8093 45.3085 12.0206 44.0819C12.1162 43.5269 11.9703 43.0083 12.034 42.4576C12.0868 42.0003 12.1044 41.5314 12.0304 41.0913C11.858 40.0653 12.0243 38.9483 12.0368 37.8969C12.0515 36.6575 11.642 35.5023 11.5157 34.2858C11.3917 33.0918 11.0858 31.928 10.8369 30.7583C10.2676 28.0826 9.5674 25.4593 8.61785 22.8786C7.97062 21.1196 7.55609 19.294 6.40331 17.6822C5.90849 16.9903 5.64973 16.1742 4.95576 15.5654C4.50832 15.1729 4.56255 14.5771 4.08839 14.1884C3.85432 13.9965 3.70412 13.3713 3.634 13.1027L3.62154 13.0549C3.50871 12.622 3.38435 12.1449 3.16955 11.7446C2.90957 11.2602 2.84226 10.7313 2.7306 10.2066C2.61828 9.67871 2.36443 9.11174 2.45094 8.55483C2.48518 8.33438 2.33147 8.099 2.41203 7.88459C2.46653 7.7395 2.58262 7.54376 2.56484 7.40305C2.50772 6.95103 2.98196 6.49231 3.10261 6.03135C3.30733 5.24925 4.62098 4.27603 5.58618 3.7567C6.61232 3.20458 9.1129 2.85078 10.1051 3.17435C11.5359 3.64099 12.1557 4.22127 12.0405 5.37187C11.9719 6.05578 11.9078 6.77281 12.0478 7.43083C12.1366 7.84824 12.5185 6.46258 12.558 6.30448C12.6994 5.73851 13.223 5.00125 13.6291 4.44013C14.1427 3.73054 14.8005 3.23181 15.5549 2.61843C16.0891 2.18417 17.6774 1.49186 18.4633 1.66532C18.8835 1.75806 19.4159 1.6512 19.8328 1.80299C20.2751 1.9641 20.6844 2.35622 21.115 2.46812C21.8746 2.66553 21.6145 3.58041 21.5535 4.04121C21.3905 5.27088 21.1969 6.42596 20.6449 7.68202C20.0344 9.07126 18.9563 10.4311 18.5529 11.8341C17.8254 14.3636 17.5187 16.9464 18.031 19.354L19.0578 24.1796L19.7108 27.2486C19.9034 28.154 20.2966 28.9759 20.5609 29.8567C20.8962 30.9745 21.5442 31.99 22.0619 33.0497C22.3177 33.5731 22.5371 34.2797 23.0218 34.7114C23.3097 34.9678 23.4961 35.2787 23.7866 35.5315C24.008 35.7241 24.4718 35.8652 24.7484 36.0403C25.382 36.4412 26.4078 36.9037 27.2678 37.1207C30.1323 37.8433 31.0664 39.3469 31.187 41.4056C31.2147 41.8779 30.9331 42.4485 30.7697 42.9313C30.5011 43.7253 30.2402 44.4816 29.378 45.1632C28.9637 45.4907 28.658 45.5797 28.0937 45.7259C26.8793 46.0405 25.5812 46.4305 24.3307 46.4866Z" fill="#A50FF5"/>
<path d="M22.0092 45.4739C22.2396 46.3171 23.0289 46.545 24.3307 46.4866C25.5812 46.4305 26.8793 46.0405 28.0937 45.7259C28.658 45.5797 28.9637 45.4907 29.378 45.1632C30.2402 44.4816 30.5011 43.7253 30.7697 42.9313C30.9331 42.4485 31.2147 41.8779 31.187 41.4056C31.0664 39.3469 30.1323 37.8433 27.2678 37.1207C26.4078 36.9037 25.382 36.4412 24.7484 36.0403C24.4718 35.8652 24.008 35.7241 23.7866 35.5315C23.4961 35.2787 23.3097 34.9678 23.0218 34.7114C22.5371 34.2797 22.3177 33.5731 22.0619 33.0497C21.5442 31.99 20.8962 30.9745 20.5609 29.8567C20.2966 28.9759 19.9034 28.154 19.7108 27.2486C19.4931 26.2256 19.2754 25.2026 19.0578 24.1796C18.7155 22.5711 18.3732 20.9625 18.031 19.354C17.5187 16.9464 17.8254 14.3636 18.5529 11.8341C18.9563 10.4311 20.0344 9.07126 20.6449 7.68202C21.1969 6.42596 21.3905 5.27088 21.5535 4.04121C21.6145 3.58041 21.8746 2.66553 21.115 2.46812C20.6844 2.35622 20.2751 1.9641 19.8328 1.80299C19.4159 1.6512 18.8835 1.75806 18.4633 1.66532C17.6774 1.49186 16.0891 2.18417 15.5549 2.61843C14.8005 3.23181 14.1427 3.73054 13.6291 4.44013C13.223 5.00126 12.6994 5.73851 12.558 6.30448C12.5185 6.46258 12.1366 7.84824 12.0478 7.43083C11.9078 6.77281 11.9719 6.05578 12.0405 5.37187C12.1557 4.22127 11.5359 3.64099 10.1051 3.17435C9.1129 2.85078 6.61232 3.20458 5.58618 3.7567C4.62098 4.27602 3.30733 5.24925 3.10261 6.03135C2.98196 6.49231 2.50772 6.95103 2.56484 7.40305C2.58262 7.54376 2.46653 7.7395 2.41203 7.88458C2.33147 8.099 2.48518 8.33438 2.45094 8.55483C2.36443 9.11174 2.61828 9.67871 2.7306 10.2066C2.84226 10.7313 2.90957 11.2602 3.16955 11.7446C3.39229 12.1597 3.51777 12.6573 3.634 13.1027C3.70412 13.3713 3.85432 13.9965 4.08839 14.1884C4.56255 14.5771 4.50832 15.1729 4.95576 15.5654C5.64973 16.1742 5.90849 16.9903 6.40331 17.6822C7.55609 19.294 7.97062 21.1196 8.61785 22.8786C9.5674 25.4593 10.2676 28.0826 10.8369 30.7583C11.0858 31.928 11.3917 33.0918 11.5157 34.2858C11.642 35.5023 12.0515 36.6575 12.0368 37.8969C12.0243 38.9483 11.858 40.0653 12.0304 41.0913C12.1044 41.5314 12.0868 42.0003 12.034 42.4576C11.9703 43.0083 12.1162 43.5269 12.0206 44.0819C11.8093 45.3085 12.0546 46.6038 12.3025 47.7687C12.4403 48.4164 12.5844 49.8792 13.6955 50.1166C18.4529 51.6851 22.7979 48.8484 22.0674 45.4151" stroke="black" stroke-width="3" stroke-linecap="round"/>
</g>
</svg>
